<svg xmlns="http://www.w3.org/2000/svg" viewBox="0 0 142 35"><defs><style>.cls-1{fill:#fff;}</style></defs><title>LANDING PAGE_AFIN CLIC_</title><g id="diseño"><path class="cls-1" d="M97,30.74a10.1,10.1,0,0,1-6.86-2.48,7.86,7.86,0,0,1-2.75-6.16,8,8,0,0,1,2.71-6.2,9.81,9.81,0,0,1,6.81-2.44,11.93,11.93,0,0,1,5.55,1.32l.78-2.65a13,13,0,0,0-6.37-1.48,12.84,12.84,0,0,0-8.93,3.22,10.5,10.5,0,0,0-3.56,8.19A10.53,10.53,0,0,0,88,30.3a13,13,0,0,0,9,3.21A13.53,13.53,0,0,0,104,31.65l-.34-2.88A11.24,11.24,0,0,1,97,30.74Z"/><rect class="cls-1" x="106.79" y="1.63" width="2.94" height="31.36"/><rect class="cls-1" x="114.63" y="11.18" width="2.94" height="21.81"/><path class="cls-1" d="M116.09,1.58a2.1,2.1,0,0,0-1.59.66,2.27,2.27,0,0,0,0,3.11,2.19,2.19,0,0,0,1.59.62,2.22,2.22,0,0,0,1.59-.62,2.23,2.23,0,0,0,0-3.11A2.14,2.14,0,0,0,116.09,1.58Z"/><path class="cls-1" d="M140.55,28.77a11.27,11.27,0,0,1-6.7,2A10.11,10.11,0,0,1,127,28.26a7.86,7.86,0,0,1-2.75-6.16A8,8,0,0,1,127,15.9a9.83,9.83,0,0,1,6.82-2.44,12,12,0,0,1,5.55,1.32l.78-2.65a13,13,0,0,0-6.37-1.48,12.86,12.86,0,0,0-8.94,3.22,10.53,10.53,0,0,0-3.55,8.19,10.55,10.55,0,0,0,3.57,8.24,13,13,0,0,0,9,3.21,13.47,13.47,0,0,0,7.11-1.86Z"/><polygon class="cls-1" points="57.99 11.18 57.99 32.98 64.23 32.98 64.23 19.55 59.68 11.18 57.99 11.18"/><path class="cls-1" d="M78.55,13.68a9.06,9.06,0,0,0-6.9-3.12c-1.6-.06-5.15.19-7.62.39l2.88,5.29a21.2,21.2,0,0,1,2.66-.15A5.3,5.3,0,0,1,75,21.56V33h6.24V21.57A11.54,11.54,0,0,0,78.55,13.68Z"/><path class="cls-1" d="M50.26,1.4a3.85,3.85,0,0,0-2.82,1.13,3.76,3.76,0,0,0-1.1,2.77,3.86,3.86,0,0,0,3.92,3.89A3.72,3.72,0,0,0,53,8.05,3.77,3.77,0,0,0,54.16,5.3a3.83,3.83,0,0,0-3.9-3.9Z"/><rect class="cls-1" x="47.13" y="11.18" width="6.24" height="21.81"/><path class="cls-1" d="M32.24,3.15a7.81,7.81,0,0,0-2.65,6.12v1.91H23.24l2.93,5.38h3.42V33h6.25V16.56H42.4V11.18H35.84v-.79c0-2.62,1.33-3.94,4-3.94a15.82,15.82,0,0,1,4.32.69l.51-5.59A33.12,33.12,0,0,0,39.1.8,10,10,0,0,0,32.24,3.15Z"/><path class="cls-1" d="M20.52,13c-1.82-1.65-4.72-2.48-8.72-2.48a18.3,18.3,0,0,0-4.49.59q-.91.22-1.59.42l2.77,5.08a14.82,14.82,0,0,1,2.89-.31c3.64,0,5.52,1.42,5.63,3.9a19.74,19.74,0,0,0-5.63-.78c-3.33,0-5.83.65-7.48,2a6.44,6.44,0,0,0-2.45,5.21,6.21,6.21,0,0,0,2.39,5,9.77,9.77,0,0,0,6.31,2c2.71,0,4.83-.3,7-.48l-2.65-4.88a5.31,5.31,0,0,1-2.78.72c-2.65,0-4.11-1.08-4.11-2.69s1.76-2.92,4.89-2.92a11.12,11.12,0,0,1,4.21.74v0h0L21.59,33h1.66v-12Q23.25,15.51,20.52,13Z"/></g></svg>