<svg xmlns="http://www.w3.org/2000/svg" viewBox="0 0 107 72"><defs><style>.cls-1{fill:#006;}</style></defs><title>LANDING PAGE_AFIN CLIC_</title><g id="diseño"><path class="cls-1" d="M24,20.16H84.28v-.3A2.23,2.23,0,0,0,82,17.63H23.69a2.23,2.23,0,0,0-2.23,2.23v31a2.23,2.23,0,0,0,2.23,2.24H24Z"/><path class="cls-1" d="M83.58,22.69h-50a7,7,0,0,0-7,7V52.41a7,7,0,0,0,7,7h50a7,7,0,0,0,7-7V29.72A7,7,0,0,0,83.58,22.69ZM86.6,48a7.91,7.91,0,0,0-7.89,7.38H38.44a7.91,7.91,0,0,0-7.91-7.91V34.62a7.91,7.91,0,0,0,7.91-7.91H78.69a7.91,7.91,0,0,0,7.91,7.91Z"/><path class="cls-1" d="M65.24,32.62A10.76,10.76,0,1,0,67,47.74,10.77,10.77,0,0,0,65.24,32.62ZM62,46.09a4.37,4.37,0,0,1-2.9,1.15v1.55h-1V47.25a6.8,6.8,0,0,1-2.06-.51,3.56,3.56,0,0,1-1.38-1.2,4,4,0,0,1-.67-2l1.7-.29A3.64,3.64,0,0,0,56.4,45a2.57,2.57,0,0,0,1.71.92V41.07A7.48,7.48,0,0,1,56,40.34a3,3,0,0,1-1.25-1.13,3.16,3.16,0,0,1-.44-1.65,3.24,3.24,0,0,1,1.28-2.65,4.76,4.76,0,0,1,2.54-.83v-.74h1v.74a4.4,4.4,0,0,1,2.35.78,3.4,3.4,0,0,1,1.33,2.29L61,37.39A2.53,2.53,0,0,0,60.42,36a2.35,2.35,0,0,0-1.31-.64v4.42a15.69,15.69,0,0,1,1.7.46A4.44,4.44,0,0,1,62.1,41a3.07,3.07,0,0,1,.76,1.08,3.31,3.31,0,0,1,.27,1.34A3.5,3.5,0,0,1,62,46.09Z"/><path class="cls-1" d="M59.11,41.29V46a2.65,2.65,0,0,0,1.63-.78,2.26,2.26,0,0,0,.65-1.64,1.92,1.92,0,0,0-.46-1.35A4,4,0,0,0,59.11,41.29Z"/><path class="cls-1" d="M56,37.44a1.88,1.88,0,0,0,.49,1.31,3.35,3.35,0,0,0,1.64.85V35.35a2.59,2.59,0,0,0-1.56.72A1.89,1.89,0,0,0,56,37.44Z"/><path class="cls-1" d="M18.92,15.1H79.21v-.3A2.23,2.23,0,0,0,77,12.56H18.63a2.24,2.24,0,0,0-2.24,2.24v31A2.23,2.23,0,0,0,18.63,48h.29Z"/></g></svg>