<svg xmlns="http://www.w3.org/2000/svg" viewBox="0 0 107 72"><defs><style>.cls-1{fill:#006;}</style></defs><title>LANDING PAGE_AFIN CLIC_</title><g id="diseño"><path class="cls-1" d="M81.33,35.1h-.78V40H68.72a4.62,4.62,0,1,0,0,9.23H79.93a3,3,0,0,0,3-3.05V36.75A1.64,1.64,0,0,0,81.33,35.1ZM69,47.48A2.92,2.92,0,0,1,67.43,47a2.88,2.88,0,1,1,1.54.45Z"/><polygon class="cls-1" points="55.71 19.84 45.99 7.88 31.25 19.85 55.71 19.84"/><polygon class="cls-1" points="63.36 19.91 55.91 10.73 52.67 13.36 57.99 19.91 63.36 19.91"/><polygon class="cls-1" points="71.14 19.84 64.83 11.83 61.3 14.62 65.54 19.84 71.14 19.84"/><path class="cls-1" d="M68.42,51A6.45,6.45,0,0,1,62,44.59h0a6.46,6.46,0,0,1,6.45-6.46H78.55v-13a3.44,3.44,0,0,0-3.44-3.44H27.46A3.43,3.43,0,0,0,24,25.13V60.69a3.43,3.43,0,0,0,3.43,3.43H75.12a3.43,3.43,0,0,0,3.43-3.44V51Z"/></g></svg>