<svg xmlns="http://www.w3.org/2000/svg" viewBox="0 0 107 72"><defs><style>.cls-1{fill:#006;}</style></defs><title>LANDING PAGE_AFIN CLIC_</title><g id="diseño"><path class="cls-1" d="M75.3,29.08,34.92,3.77a1.79,1.79,0,0,0-2.46.57l-4.84,7.72,3.26.84.19-.3a6.31,6.31,0,0,0,8.7-2l12.49,7.83L62.19,21a1.77,1.77,0,0,1,1.28,2.17l-.5,2L67,27.69a6.32,6.32,0,0,0,2,8.71l-5.7,9.09a6.32,6.32,0,0,0-5.48-.59L57,48.16a1.8,1.8,0,0,1-2.18,1.28l-4-1L59.7,54a1.78,1.78,0,0,0,2.46-.57l13.7-21.86A1.78,1.78,0,0,0,75.3,29.08Z"/><path class="cls-1" d="M62.19,21l-9.93-2.57L30.88,12.9l-3.26-.84-11.56-3a1.77,1.77,0,0,0-2.17,1.28l-6.47,25A1.8,1.8,0,0,0,8.7,37.5L50.82,48.4l4,1A1.8,1.8,0,0,0,57,48.16l.84-3.26L63,25.14l.5-2A1.77,1.77,0,0,0,62.19,21ZM55.74,40.26a6.3,6.3,0,0,0-7.07,3,5.5,5.5,0,0,0-.51,1.13L41.8,42.74,17,36.32a6.32,6.32,0,0,0-4.53-7.7l2.58-10a6.33,6.33,0,0,0,7.7-4.53l3.08.79,3.26.85,24.8,6.42a6.33,6.33,0,0,0,4.54,7.7Z"/><path class="cls-1" d="M34.89,33.15a2.09,2.09,0,0,0,1.42-.28,1.81,1.81,0,0,0,.83-1.14,1.54,1.54,0,0,0-.09-1.13,3.18,3.18,0,0,0-1.22-1.07Z"/><path class="cls-1" d="M34.89,25a1.51,1.51,0,0,0-.71.95A1.45,1.45,0,0,0,34.29,27a2.78,2.78,0,0,0,1.1,1l.85-3.29A2.11,2.11,0,0,0,34.89,25Z"/><path class="cls-1" d="M42.3,24.06a8.6,8.6,0,1,0-1.66,12.05A8.61,8.61,0,0,0,42.3,24.06Zm-2.8,3-1.4-.17a2,2,0,0,0-.21-1.19A1.91,1.91,0,0,0,37,25l-.89,3.43a11.68,11.68,0,0,1,1.23.69,3.37,3.37,0,0,1,.84.85,2.51,2.51,0,0,1,.38,1,2.93,2.93,0,0,1-.06,1.1,2.83,2.83,0,0,1-1.4,1.83,3.46,3.46,0,0,1-2.48.3l-.31,1.21-.77-.2L33.86,34a5.73,5.73,0,0,1-1.5-.81,2.8,2.8,0,0,1-.82-1.21,3.16,3.16,0,0,1-.12-1.69l1.38.11A3,3,0,0,0,33,31.9,2.1,2.1,0,0,0,34.12,33l1-3.78a6.27,6.27,0,0,1-1.51-1A2.4,2.4,0,0,1,32.85,27a2.51,2.51,0,0,1,0-1.36,2.59,2.59,0,0,1,1.52-1.79,3.84,3.84,0,0,1,2.14-.14l.14-.56.78.2-.15.56A3.56,3.56,0,0,1,38.93,25,2.71,2.71,0,0,1,39.5,27.07Z"/><rect class="cls-1" x="82.47" y="42.36" width="11.64" height="28.24" rx="5.82" transform="translate(116.7 157.37) rotate(-138.33)"/><path class="cls-1" d="M85.72,36.82c-1.65-2.64-3.1-5.43-4.65-8.13-1.35-2.37-2.65-5.51-4.84-7.24s-5-2-7.63-2.5l-8.35-1.48,16,10.05a3.64,3.64,0,0,1,1.14,5l-5.73,9.14-2.13-2.43a5.1,5.1,0,0,1-1.08-.64C65.43,36.29,56.86,26,53.55,31c-1.78,2.7,5.3,7.83,10.1,16.64,1.12,2.05,1.78,4.31,3.09,6.25a17.89,17.89,0,0,0,7.38,6c.29.13.55.24.79.32L90.84,42.37A27.31,27.31,0,0,1,85.72,36.82Z"/></g></svg>