<svg xmlns="http://www.w3.org/2000/svg" xmlns:xlink="http://www.w3.org/1999/xlink" viewBox="0 0 103 31"><defs><style>.cls-1{fill:url(#Degradado_sin_nombre_21);}.cls-2{fill:#fff;}</style><linearGradient id="Degradado_sin_nombre_21" x1="0.56" y1="15.5" x2="102.5" y2="15.5" gradientUnits="userSpaceOnUse"><stop offset="0" stop-color="#192743"/><stop offset="1" stop-color="#36a9e1" stop-opacity="0"/></linearGradient></defs><title>LANDING PAGE_AFIN CLIC_</title><g id="diseño"><path class="cls-1" d="M51.52,31H4.93C2.15,31,.6,29.45.6,26.69c0-7.43.05-14.85,0-22.28A4.22,4.22,0,0,1,4.94,0Q51.17.07,97.39,0c3.41,0,5.18,1.71,5.11,5.09-.15,7.22,0,14.46,0,21.69A3.89,3.89,0,0,1,98.25,31Z"/><path class="cls-2" d="M51.54,31Q28.17,31,4.81,31A3.74,3.74,0,0,1,1.3,29.17a4.25,4.25,0,0,1-.64-2c0-7.77,0-15.53,0-23.3A3.84,3.84,0,0,1,4.49,0h.88Q51.66,0,98,0a6,6,0,0,1,2.46.48,3.47,3.47,0,0,1,2.08,3.33q0,11.61,0,23.22A3.83,3.83,0,0,1,98.71,31c-.39,0-.78,0-1.17,0Zm0-30.29H4.88A3.26,3.26,0,0,0,1.3,4.25q0,11.18,0,22.35C1.3,29,2.61,30.27,5,30.27H98q3.8,0,3.8-3.79c0-5.51,0-11,0-16.53,0-2,0-4,0-6A3.22,3.22,0,0,0,98.56.69c-.37,0-.73,0-1.09,0Z"/><path class="cls-2" d="M6.38,5.66,17,15.93,6.38,26.2Z"/><path class="cls-2" d="M7.47,5.4l13.05,6.89-2.95,3.15L7.34,5.57Z"/><path class="cls-2" d="M7.56,26.08l10-9.67,2.52,2.9L7.65,26.24Z"/><path class="cls-2" d="M18.33,15.93C19.18,15,20.08,14,21,13.09a.67.67,0,0,1,.62,0c1.14.63,2.28,1.29,3.4,2a.73.73,0,0,1,0,1.37c-1.21.73-2.42,1.43-3.66,2.11a.72.72,0,0,1-.67-.06C19.86,17.61,19.07,16.72,18.33,15.93Z"/><path class="cls-2" d="M56.83,17.3c.16-1.08.89-.49,1.35-.61,0,2.13.07,4.2,0,6.27a2.21,2.21,0,0,1-1.84,2A5.33,5.33,0,0,1,52,24.3l.52-.85a18.77,18.77,0,0,0,2.82.43c1.12,0,1.62-.77,1.49-2a3.13,3.13,0,0,1-3,.49,3.82,3.82,0,0,1-1.55-1.11,3,3,0,0,1,.26-3.75A3.4,3.4,0,0,1,56.83,17.3Zm-1.82,4A1.76,1.76,0,1,0,55,17.82a1.76,1.76,0,0,0-1.84,1.75A1.78,1.78,0,0,0,55,21.33Z"/><path class="cls-2" d="M34.51,16.78A3.19,3.19,0,0,0,31.58,16a2.83,2.83,0,0,0,.2,5.54,3.77,3.77,0,0,0,.58,0C33.79,21.62,34,21.4,34,20V18.76h1.41c0,1,0,2,0,3,0,.11-.13.25-.23.34-2.1,1.78-6,.8-7-1.75a4.19,4.19,0,0,1,4.25-5.72,4,4,0,0,1,3,1.31Z"/><path class="cls-2" d="M74.1,14.85c1.46,0,2.85-.11,4.22,0a2.58,2.58,0,0,1,2.47,2.73,2.65,2.65,0,0,1-2.49,2.8c-.88.12-1.78.1-2.74.15v2.24H74.1Zm1.47,4.45c.93-.07,1.8-.07,2.64-.22a1.36,1.36,0,0,0,1.09-1.45,1.33,1.33,0,0,0-1.07-1.45A25.41,25.41,0,0,0,75.57,16Z"/><path class="cls-2" d="M68.17,21.08l.67.75c-.69,1.28-3.08,1.31-4.25.66a3.17,3.17,0,0,1,2.52-5.78,3,3,0,0,1,2.13,3.5H64.56C64.82,21.73,66.41,22.11,68.17,21.08Zm-.28-1.87a1.7,1.7,0,0,0-3.36,0Z"/><path class="cls-2" d="M85.93,18.34l-.5-.88a4.12,4.12,0,0,1,3.95-.62,2.36,2.36,0,0,1,1.42,2.53v3.47c-.59-.11-1.25.38-1.46-.57a2.89,2.89,0,0,1-2.49.59A1.84,1.84,0,0,1,85.2,21a1.78,1.78,0,0,1,1.65-1.72,10.14,10.14,0,0,1,1.23-.07h1.39c-.22-.45-.29-.91-.56-1.1C87.92,17.46,86.93,17.88,85.93,18.34Zm3.33,1.8a19.12,19.12,0,0,0-2,.17.85.85,0,0,0-.56.56.92.92,0,0,0,.28.74,1.62,1.62,0,0,0,1.79,0A1.15,1.15,0,0,0,89.26,20.14Z"/><path class="cls-2" d="M91.59,16.77c1.37-.24,1.37-.24,1.84.85L95,21.18l.57-1.25c.33-.75.65-1.51,1-2.27.46-1.05.46-1.05,1.7-.95a1.75,1.75,0,0,1,0,.33c-.94,2.18-1.86,4.36-2.84,6.53a2.43,2.43,0,0,1-3.89,1l.49-.94a6,6,0,0,0,1,.29A1.05,1.05,0,0,0,94,22.43c-.71-1.65-1.43-3.29-2.14-4.94C91.78,17.27,91.7,17.05,91.59,16.77Z"/><path class="cls-2" d="M47.49,22.91a3.15,3.15,0,1,1,3.29-3.12A3.09,3.09,0,0,1,47.49,22.91Zm1.84-3.18a1.83,1.83,0,1,0-3.66.05,1.83,1.83,0,1,0,3.66-.05Z"/><path class="cls-2" d="M40.07,22.91a3.15,3.15,0,1,1,3.26-3.16A3.08,3.08,0,0,1,40.07,22.91Zm-1.85-3.18a1.82,1.82,0,0,0,1.8,2,1.84,1.84,0,0,0,1.85-1.92,1.83,1.83,0,1,0-3.65,0Z"/><path class="cls-2" d="M60.25,14.31H61.6v8.48H60.25Z"/><path class="cls-2" d="M83.69,22.81H82.36v-8.5h1.33Z"/><path class="cls-2" d="M33,10.26a5.67,5.67,0,0,1-.45-.84.7.7,0,0,0-.86-.56,2.81,2.81,0,0,1-.58,0c-1-.09-1.95-.1-2.2,1.2,0,.07-.17.12-.37.09.14-.34.28-.68.44-1,.5-1.11,1-2.21,1.52-3.3a2.39,2.39,0,0,1,.4-.45,2,2,0,0,1,.35.42q1,2.15,2,4.31ZM30.89,5.77,29.67,8.53h2.48C31.73,7.6,31.35,6.76,30.89,5.77Z"/><path class="cls-2" d="M49.49,9.62l-.12.57h-.16v-5h.18V7.09A4.85,4.85,0,0,1,51,6.62a2.36,2.36,0,0,1,1.4.75,1.87,1.87,0,0,1-.22,2.39C51.47,10.42,50.55,10.38,49.49,9.62Zm2.87-1.19a1.46,1.46,0,0,0-1.47-1.54,1.44,1.44,0,0,0-1.43,1.5,1.45,1.45,0,1,0,2.9,0Z"/><path class="cls-2" d="M75.05,10.2V5.13h.2v2l.65-.38a1.49,1.49,0,0,1,2.3,1.34c0,.69,0,1.39,0,2.09h-.35V8.39c0-1.05-.34-1.48-1.15-1.5s-1.35.5-1.37,1.51c0,.6,0,1.2,0,1.81Z"/><path class="cls-2" d="M58.56,8.48H55.62c0,1.38,1.16,1.8,2.62,1-.1.52-.74.8-1.52.68a1.8,1.8,0,0,1-1.49-2.13,1.72,1.72,0,0,1,1.9-1.5A1.65,1.65,0,0,1,58.56,8.48Zm-3-.32h2.64c-.14-.83-.57-1.25-1.27-1.27S55.77,7.28,55.6,8.16Z"/><path class="cls-2" d="M79.61,8.48c.25,1.44,1.21,1.77,2.68,1-.11.53-.73.81-1.52.68a1.78,1.78,0,0,1-1.49-2.13,1.71,1.71,0,0,1,1.83-1.5,1.63,1.63,0,0,1,1.49,1.9Zm0-.31h2.63A1.27,1.27,0,0,0,81,6.89C80.24,6.88,79.81,7.28,79.65,8.17Z"/><path class="cls-2" d="M47.51,10.21a1.26,1.26,0,0,0-.14-.21,11,11,0,0,1-1.82.15.79.79,0,0,1-.75-1,1.43,1.43,0,0,1,.78-.87,6.74,6.74,0,0,1,1.69-.17c.09-1.26-.41-1.45-2.28-.94a1.49,1.49,0,0,1,1.55-.61,1.12,1.12,0,0,1,1.11,1c.05.84,0,1.67,0,2.51Zm-.22-1.7a8.87,8.87,0,0,0-1.56,0c-.24,0-.59.39-.58.59a1,1,0,0,0,.52.74C46.6,10.25,47.39,9.58,47.29,8.51Z"/><path class="cls-2" d="M64.71,8.45a1.8,1.8,0,1,1-3.6-.08A1.75,1.75,0,0,1,62.9,6.58,1.8,1.8,0,0,1,64.71,8.45Zm-.36,0a1.45,1.45,0,1,0-2.89-.07,1.43,1.43,0,0,0,1.45,1.56A1.41,1.41,0,0,0,64.35,8.43Z"/><path class="cls-2" d="M39.65,8.21c0-1.33-.42-1.51-2.28-1a1.46,1.46,0,0,1,1.57-.59c.58.1,1,.39,1.06,1,0,.84,0,1.69,0,2.72l-.33-.41a7.3,7.3,0,0,1-1.51.27,1,1,0,0,1-1.05-1c0-.65.45-.94,1-1S39.12,8.21,39.65,8.21Zm0,.31a9,9,0,0,0-1.56,0,.87.87,0,0,0-.55.61.91.91,0,0,0,.47.7A1.16,1.16,0,0,0,39.62,8.52Z"/><path class="cls-2" d="M65.84,10.18V6.67l.12,0,.23.5a5.62,5.62,0,0,1,.5-.35A1.49,1.49,0,0,1,69,8.09c0,.69,0,1.39,0,2.08l-.18,0a1.53,1.53,0,0,1-.14-.39c0-.58,0-1.17,0-1.74a1.07,1.07,0,0,0-1.1-1.18,1.23,1.23,0,0,0-1.37,1c-.07.5,0,1-.06,1.52,0,.25,0,.5,0,.75Z"/><path class="cls-2" d="M33.5,6.57,35,9.78l1.5-3.21.25.11c-.31.69-.61,1.38-.92,2.06A11.78,11.78,0,0,1,35.24,10c-.05.09-.44.12-.46.08-.53-1.11-1-2.25-1.55-3.37Z"/><path class="cls-2" d="M72.3,7l-.61-.13,0-.13.56-.18.17-.68h.13l.16.69,1,.11,0,.17L72.64,7c0,.82,0,1.62,0,2.4s.74.53,1.24.52v.22c-.34,0-.74.2-1,.06a1.28,1.28,0,0,1-.59-.87A19.55,19.55,0,0,1,72.3,7Z"/><path class="cls-2" d="M41.74,6.64V10.2h-.18V6.65Z"/><path class="cls-2" d="M53.87,10.17v-5H54v5Z"/><path class="cls-2" d="M43.36,10.17v-5h.17v5Z"/></g></svg>