<svg xmlns="http://www.w3.org/2000/svg" xmlns:xlink="http://www.w3.org/1999/xlink" viewBox="0 0 103 31"><defs><style>.cls-1{fill:url(#Degradado_sin_nombre_21);}.cls-2{fill:#fff;}</style><linearGradient id="Degradado_sin_nombre_21" x1="0.27" y1="15.5" x2="102.21" y2="15.5" gradientUnits="userSpaceOnUse"><stop offset="0" stop-color="#192743"/><stop offset="1" stop-color="#36a9e1" stop-opacity="0"/></linearGradient></defs><title>LANDING PAGE_AFIN CLIC_</title><g id="diseño"><path class="cls-1" d="M51.23,31H4.64C1.86,31,.3,29.45.3,26.69c0-7.43.06-14.85,0-22.28A4.22,4.22,0,0,1,4.65,0Q50.87.07,97.09,0c3.41,0,5.19,1.71,5.12,5.09-.15,7.22,0,14.46,0,21.69A3.9,3.9,0,0,1,98,31Z"/><path class="cls-2" d="M51.23,31H4.64C1.86,31,.3,29.45.3,26.69c0-7.43.06-14.85,0-22.28A4.22,4.22,0,0,1,4.65,0Q50.87.07,97.09,0c3.41,0,5.19,1.71,5.12,5.09-.15,7.22,0,14.46,0,21.69A3.9,3.9,0,0,1,98,31Zm0-.68H97.7c2.43,0,3.79-1.26,3.8-3.51q0-11.28,0-22.57A3.3,3.3,0,0,0,97.93.72H4.84C2.19.72,1,2,1,4.59c0,7.09.06,14.18,0,21.26,0,3,1.12,4.52,4.48,4.5C20.67,30.28,35.93,30.32,51.19,30.32Z"/><path class="cls-2" d="M43.57,22.29v2.82H42.14V16.6h1.28l.14.59c1.81-1,3.45-.85,4.51.4a3.5,3.5,0,0,1,0,4.25C47.1,23.08,45.46,23.27,43.57,22.29Zm0-2.6a1.87,1.87,0,1,0,3.73.06,1.87,1.87,0,1,0-3.73-.06Z"/><path class="cls-2" d="M51.68,22.29v2.82H50.27V16.6h1.28l.09.54C54,16,55.94,16.17,56.8,19a3,3,0,0,1-1.08,3.33C54.66,23.15,53.37,23.16,51.68,22.29Zm3.71-2.59a1.84,1.84,0,0,0-1.88-2,1.88,1.88,0,0,0-1.85,2,1.87,1.87,0,1,0,3.73-.05Z"/><path class="cls-2" d="M32.26,22.78c.71-1.57,1.4-3.14,2.1-4.7.46-1,.89-2,1.39-3a.94.94,0,0,1,.71-.4c.39,0,.89-.27,1.15.31,1.16,2.6,2.34,5.2,3.57,7.93a9.11,9.11,0,0,1-1.3,0,.71.71,0,0,1-.48-.41c-.27-1.34-1.1-1.7-2.36-1.51a11.92,11.92,0,0,1-1.89,0,.64.64,0,0,0-.75.51,2.83,2.83,0,0,1-.17.4C33.73,23,33.66,23.06,32.26,22.78Zm2.89-3.06h3.06c-.51-1.18-1-2.3-1.53-3.58C36.13,17.41,35.66,18.52,35.15,19.72Z"/><path class="cls-2" d="M66.85,16.28c-.77-.18-1.44-.38-2.13-.49a1.87,1.87,0,0,0-1.13.13,1.65,1.65,0,0,0-.81,1c0,.24.39.72.71.84.89.36,1.86.54,2.76.88a2,2,0,0,1,1.09,3A2.87,2.87,0,0,1,66,22.69,5.6,5.6,0,0,1,61,22.06L61.47,21a22.12,22.12,0,0,0,2.41.69,3.47,3.47,0,0,0,1.56-.17,1.11,1.11,0,0,0,.62-.78,1.17,1.17,0,0,0-.52-.84,6,6,0,0,0-1.3-.45c-.57-.18-1.17-.32-1.73-.54a1.93,1.93,0,0,1-1.31-1.84,2.11,2.11,0,0,1,1.15-2,5.23,5.23,0,0,1,4.93.17Z"/><path class="cls-2" d="M91.76,21.9a3.73,3.73,0,0,1-4.54.54A3.25,3.25,0,0,1,90,16.62a3.05,3.05,0,0,1,2.17,3.56H87.32c.33,1.58,1.89,1.94,3.7.9Zm-4.45-2.74h3.42A1.61,1.61,0,0,0,89,17.69,1.59,1.59,0,0,0,87.31,19.16Z"/><path class="cls-2" d="M76.68,23A3.23,3.23,0,1,1,80,19.69,3.2,3.2,0,0,1,76.68,23Zm1.85-3.25a1.88,1.88,0,1,0-3.76,0,1.88,1.88,0,1,0,3.76,0Z"/><path class="cls-2" d="M69.22,17.86l-1-.13V16.67l1-.11.08-1.33h1.38l.09,1.35,1.62.07V17.8H70.69c0,1.1,0,2.12,0,3.13,0,.76.58.95,1.62.65.64.93.51,1.24-.61,1.36a2,2,0,0,1-2.49-2.24C69.21,19.76,69.22,18.82,69.22,17.86Z"/><path class="cls-2" d="M81.49,16.57h1.26l.15.56L85,16.35v1.44c-1.81.34-2.1.7-2.11,2.56v2.49H81.49Z"/><path class="cls-2" d="M25.75,12.17l-.56.46a4,4,0,0,0,.44,6.75c.45.27.6.52.34,1-.77,1.25-1.47,2.56-2.35,3.72a2.42,2.42,0,0,1-3.15.69,4.25,4.25,0,0,0-3.85,0,2.49,2.49,0,0,1-3.16-.65,11.52,11.52,0,0,1-3.19-9,5,5,0,0,1,4.54-4.8,6,6,0,0,1,2.31.46,2.94,2.94,0,0,0,2.38,0,4.76,4.76,0,0,1,5,.3A12.73,12.73,0,0,1,25.75,12.17Z"/><path class="cls-2" d="M22.18,6.15a4.34,4.34,0,0,1-3.42,4.07c-.7.1-.84,0-.79-.71a4.59,4.59,0,0,1,3.47-3.94C22.06,5.43,22.27,5.62,22.18,6.15Z"/><path class="cls-2" d="M33.68,5.47a23.32,23.32,0,0,1,2.37,0A2.26,2.26,0,0,1,38.1,7.82a2.22,2.22,0,0,1-1.94,2.34,18.6,18.6,0,0,1-2.48,0Zm.34.24V10a19.2,19.2,0,0,0,2.18-.13,1.92,1.92,0,0,0,1.56-2,1.93,1.93,0,0,0-1.55-2A17.23,17.23,0,0,0,34,5.71Z"/><path class="cls-2" d="M46.9,10.28,45.66,7.17l-1.24,3.08-.27.05L42.79,6.76l.26-.11,1.24,3.18c.46-1.17.85-2.18,1.24-3.19l.24,0c.4,1,.8,2,1.27,3.18l1.24-3.16.25.1-1.32,3.51Z"/><path class="cls-2" d="M67.11,10.22,67,9.68c-1.23.89-2.34.94-3.08-.57A1.82,1.82,0,0,1,64.42,7c.69-.55,1.45-.49,2.63.27V5.21h.22v5ZM67,8.42a1.45,1.45,0,1,0-2.9.06A1.45,1.45,0,1,0,67,8.42Z"/><path class="cls-2" d="M91.73,8.54H88.79c0,1.32,1.06,1.74,2.6,1.06a1.35,1.35,0,0,1-1.7.62A1.81,1.81,0,0,1,88.4,8a1.69,1.69,0,0,1,3.33.53Zm-3-.33h2.63a1.31,1.31,0,0,0-1.32-1.28C89.34,6.92,88.89,7.35,88.76,8.21Z"/><path class="cls-2" d="M62.31,8.19c.09-1.24-.38-1.44-2.29-1a1.45,1.45,0,0,1,1.67-.54,1.58,1.58,0,0,1,.94.92,17.46,17.46,0,0,1,0,2.74l-.26-.29a7.76,7.76,0,0,1-1.88.1,1.2,1.2,0,0,1-.69-.92,1.26,1.26,0,0,1,.75-.88A6.9,6.9,0,0,1,62.31,8.19Zm0,.37a9,9,0,0,0-1.56,0,.85.85,0,0,0-.55.61.89.89,0,0,0,.46.69A1.16,1.16,0,0,0,62.3,8.56Z"/><path class="cls-2" d="M72,10.29a1.79,1.79,0,0,1-1.79-1.82A1.77,1.77,0,0,1,72,6.62a1.79,1.79,0,0,1,1.79,1.81A1.8,1.8,0,0,1,72,10.29Zm1.46-1.85A1.44,1.44,0,0,0,72,6.93,1.48,1.48,0,0,0,70.55,8.5a1.46,1.46,0,1,0,2.91-.06Z"/><path class="cls-2" d="M84.36,5.2V7.05a5,5,0,0,1,1.5-.39,1.73,1.73,0,0,1,1.2.63c.49.92.15,1.93.23,2.91H87a13.58,13.58,0,0,0,0-2,1.53,1.53,0,0,0-.61-1.09A1.76,1.76,0,0,0,85,7.22a1.5,1.5,0,0,0-.53,1,9.06,9.06,0,0,0,0,1.38c0,.22,0,.43-.06.65l-.2,0v-5Z"/><path class="cls-2" d="M42.44,8.44a1.8,1.8,0,1,1-3.6,0,1.8,1.8,0,1,1,3.6,0Zm-3.25,0A1.44,1.44,0,0,0,40.64,10a1.47,1.47,0,0,0,1.45-1.58,1.45,1.45,0,1,0-2.9.08Z"/><path class="cls-2" d="M55.47,8.48a1.73,1.73,0,0,1,1.78-1.86A1.75,1.75,0,0,1,59,8.42a1.75,1.75,0,0,1-1.8,1.86A1.73,1.73,0,0,1,55.47,8.48Zm.33,0a1.45,1.45,0,1,0,2.9,0,1.45,1.45,0,1,0-2.9,0Z"/><path class="cls-2" d="M77.78,10.19a13.87,13.87,0,0,0,0-2c-.06-.4-.33-1-.64-1.07a1.7,1.7,0,0,0-1.4.21,1.9,1.9,0,0,0-.47,1.21,13.61,13.61,0,0,0,0,1.69H75V6.72l.08,0,.17.39a7.32,7.32,0,0,1,1.45-.43,1.21,1.21,0,0,1,1.36,1.05c.07.83,0,1.67,0,2.5Z"/><path class="cls-2" d="M49.45,10.2V6.7l.12,0,.21.51c.14-.1.29-.21.44-.3A1.49,1.49,0,0,1,52.6,8.12c0,.63,0,1.26,0,1.89,0,.06-.06.12-.16.31a2.09,2.09,0,0,1-.16-.5c0-.56,0-1.12,0-1.67,0-.79-.39-1.17-1.07-1.21A1.23,1.23,0,0,0,49.77,8a11.58,11.58,0,0,0-.05,1.45c0,.25,0,.5,0,.76Z"/><path class="cls-2" d="M81.33,6.58l.16-.67h.13l.19.72,1,.07v.2L81.75,7a21.55,21.55,0,0,0,0,2.41c.08.79.75.52,1.26.49v.24c-.33,0-.72.17-1,0a1.15,1.15,0,0,1-.6-.78,22.9,22.9,0,0,1,0-2.35l-.84-.26Z"/><ellipse class="cls-2" cx="54.2" cy="7.7" rx="0.11" ry="3.54"/></g></svg>