<svg xmlns="http://www.w3.org/2000/svg" xmlns:xlink="http://www.w3.org/1999/xlink" viewBox="0 0 121.19 36.86"><defs><style>.cls-1{fill:url(#Degradado_sin_nombre_26);}.cls-2{fill:#003778;}.cls-3{fill:#fff;}</style><linearGradient id="Degradado_sin_nombre_26" y1="18.43" x2="121.19" y2="18.43" gradientUnits="userSpaceOnUse"><stop offset="0" stop-color="#192743"/><stop offset="0.22" stop-color="#162949" stop-opacity="0.89"/><stop offset="0.54" stop-color="#0f2e59" stop-opacity="0.59"/><stop offset="0.93" stop-color="#023573" stop-opacity="0.1"/><stop offset="1" stop-color="#003778" stop-opacity="0"/></linearGradient></defs><title>LANDING PAGE_AFIN CLIC_</title><g id="diseño"><path class="cls-1" d="M60.58,36.86H5.2C1.9,36.86,0,35,0,31.73,0,22.91.11,14.08,0,5.25A5,5,0,0,1,5.21,0Q60.16.1,115.11,0c4,0,6.16,2,6.07,6-.17,8.6-.05,17.2-.05,25.79a4.63,4.63,0,0,1-5,5Z"/><path class="cls-2" d="M60.58,36.86H5.2C1.9,36.86,0,35,0,31.73,0,22.91.11,14.08,0,5.25A5,5,0,0,1,5.21,0Q60.16.1,115.11,0c4,0,6.16,2,6.07,6-.17,8.6-.05,17.2-.05,25.79a4.63,4.63,0,0,1-5,5Zm0-.81h8.65q23.32,0,46.64,0c2.89,0,4.5-1.49,4.51-4.17q0-13.41,0-26.83A3.91,3.91,0,0,0,116.1.87H5.43C2.29.87.83,2.32.82,5.47c0,8.42.08,16.85,0,25.27-.05,3.55,1.33,5.37,5.32,5.35C24.25,36,42.4,36.05,60.54,36.05Z"/><path class="cls-3" d="M51.48,26.51v3.35h-1.7V19.74H51.3l.17.7c2.14-1.2,4.1-1,5.36.48a4.17,4.17,0,0,1,0,5.06C55.67,27.45,53.73,27.67,51.48,26.51Zm0-3.09a2.22,2.22,0,1,0,4.44.06,2.22,2.22,0,1,0-4.44-.06Z"/><path class="cls-3" d="M61.12,26.5v3.36H59.44V19.74H61l.11.64c2.79-1.31,5.11-1.14,6.13,2.19a3.53,3.53,0,0,1-1.28,4C64.66,27.54,63.13,27.54,61.12,26.5Zm4.41-3.08a2.19,2.19,0,0,0-2.24-2.32,2.22,2.22,0,0,0-2.19,2.38,2.22,2.22,0,1,0,4.43-.06Z"/><path class="cls-3" d="M38,27.09l2.5-5.59c.54-1.21,1.06-2.43,1.66-3.61a1.09,1.09,0,0,1,.84-.48c.46,0,1-.31,1.36.37,1.39,3.09,2.78,6.18,4.25,9.43a9.66,9.66,0,0,1-1.55,0,.81.81,0,0,1-.57-.49c-.32-1.59-1.31-2-2.8-1.79a13,13,0,0,1-2.25,0,.76.76,0,0,0-.89.61,4.89,4.89,0,0,1-.2.48C39.78,27.39,39.7,27.43,38,27.09Zm3.43-3.63h3.65c-.6-1.41-1.17-2.74-1.83-4.26C42.64,20.71,42.08,22,41.46,23.46Z"/><path class="cls-3" d="M79.16,19.37c-.93-.22-1.72-.46-2.54-.58a2.19,2.19,0,0,0-1.35.14,2,2,0,0,0-1,1.15c-.06.28.46.85.84,1,1.06.42,2.21.64,3.28,1.05a2.36,2.36,0,0,1,1.29,3.53A3.38,3.38,0,0,1,78.11,27a6.69,6.69,0,0,1-5.87-.74L72.76,25a24.44,24.44,0,0,0,2.86.82,3.92,3.92,0,0,0,1.85-.21,1.31,1.31,0,0,0,.75-.92,1.38,1.38,0,0,0-.63-1,6,6,0,0,0-1.54-.54c-.68-.22-1.39-.38-2-.65a2.27,2.27,0,0,1-1.56-2.18,2.52,2.52,0,0,1,1.36-2.43,6.25,6.25,0,0,1,5.86.21Z"/><path class="cls-3" d="M108.76,26a4.43,4.43,0,0,1-5.39.64,3.86,3.86,0,0,1,3.27-6.91A3.63,3.63,0,0,1,109.22,24h-5.74c.4,1.88,2.25,2.31,4.41,1.07Zm-5.29-3.26h4.07a2.06,2.06,0,0,0-4.07,0Z"/><path class="cls-3" d="M90.84,27.3a3.84,3.84,0,1,1,4-3.89A3.75,3.75,0,0,1,90.84,27.3ZM93,23.44a2.23,2.23,0,1,0-4.46,0,2.23,2.23,0,1,0,4.46,0Z"/><path class="cls-3" d="M82,21.24l-1.21-.15V19.83l1.16-.14.1-1.58h1.63l.12,1.61,1.92.08v1.37h-2c0,1.31,0,2.52,0,3.72.05.91.68,1.13,1.91.77.77,1.11.61,1.48-.71,1.62a2.4,2.4,0,0,1-3-2.66C82,23.5,82,22.38,82,21.24Z"/><path class="cls-3" d="M96.56,19.71h1.5l.18.66,2.51-.92v1.71c-2.15.41-2.5.84-2.5,3.05v3H96.56Z"/><path class="cls-3" d="M30.29,14.48l-.66.55a4.79,4.79,0,0,0,.52,8c.53.33.72.63.4,1.15a51.63,51.63,0,0,1-2.79,4.43,2.87,2.87,0,0,1-3.74.81,5.09,5.09,0,0,0-4.58,0,3,3,0,0,1-3.76-.78A13.69,13.69,0,0,1,11.89,17.9c.31-3.2,2.48-5.51,5.39-5.7a7.22,7.22,0,0,1,2.76.54,3.42,3.42,0,0,0,2.82,0,5.67,5.67,0,0,1,5.91.37A13.17,13.17,0,0,1,30.29,14.48Z"/><path class="cls-3" d="M26.05,7.32A5.17,5.17,0,0,1,22,12.16c-.83.12-1,0-.93-.85a5.45,5.45,0,0,1,4.12-4.68C25.91,6.47,26.15,6.69,26.05,7.32Z"/><path class="cls-3" d="M39.72,6.51a26.35,26.35,0,0,1,2.82,0A2.7,2.7,0,0,1,45,9.31a2.65,2.65,0,0,1-2.32,2.78,22.08,22.08,0,0,1-2.94,0Zm.4.28v5.07a21.57,21.57,0,0,0,2.59-.16,2.26,2.26,0,0,0,1.86-2.37,2.28,2.28,0,0,0-1.85-2.39A21.66,21.66,0,0,0,40.12,6.79Z"/><path class="cls-3" d="M55.44,12.23,54,8.53l-1.49,3.66-.31.07L50.55,8.05l.31-.14,1.48,3.78c.54-1.38,1-2.59,1.47-3.79l.28,0,1.51,3.78c.54-1.36,1-2.56,1.48-3.76l.29.12c-.52,1.39-1,2.78-1.57,4.17Z"/><path class="cls-3" d="M79.46,12.16l-.17-.64c-1.47,1.06-2.78,1.12-3.66-.68a2.15,2.15,0,0,1,.63-2.51c.83-.65,1.73-.58,3.13.32V6.2h.26v5.93ZM79.35,10a1.73,1.73,0,1,0-3.45.09A1.73,1.73,0,1,0,79.35,10Z"/><path class="cls-3" d="M108.73,10.16h-3.5c0,1.57,1.27,2.07,3.1,1.27a1.62,1.62,0,0,1-2,.73,2.15,2.15,0,0,1-1.53-2.63,2,2,0,0,1,4,.63Zm-3.53-.39h3.13a1.55,1.55,0,0,0-1.57-1.52C105.89,8.24,105.36,8.74,105.2,9.77Z"/><path class="cls-3" d="M73.75,9.75C73.87,8.27,73.3,8,71,8.59A1.71,1.71,0,0,1,73,8a1.89,1.89,0,0,1,1.13,1.1,20.38,20.38,0,0,1,0,3.26,3.77,3.77,0,0,0-.3-.35,8.76,8.76,0,0,1-2.24.11A1.41,1.41,0,0,1,70.83,11a1.48,1.48,0,0,1,.9-1A7.92,7.92,0,0,1,73.75,9.75Zm0,.44a10.38,10.38,0,0,0-1.85,0,1,1,0,0,0-.66.73,1.06,1.06,0,0,0,.55.81A1.37,1.37,0,0,0,73.74,10.19Z"/><path class="cls-3" d="M85.27,12.24a2.11,2.11,0,0,1-2.12-2.16A2.14,2.14,0,1,1,87.43,10,2.13,2.13,0,0,1,85.27,12.24ZM87,10.05a1.71,1.71,0,0,0-1.71-1.8,1.76,1.76,0,0,0-1.75,1.86A1.73,1.73,0,1,0,87,10.05Z"/><path class="cls-3" d="M100,6.2V8.39a6,6,0,0,1,1.8-.46,2,2,0,0,1,1.41.75c.6,1.09.19,2.29.28,3.45l-.39,0a16,16,0,0,0,0-2.4,1.84,1.84,0,0,0-.73-1.3,2.1,2.1,0,0,0-1.6.15,1.77,1.77,0,0,0-.62,1.14,9.8,9.8,0,0,0,0,1.63c0,.26,0,.52-.07.78l-.24,0V6.21Z"/><path class="cls-3" d="M50.13,10A2.1,2.1,0,0,1,48,12.24a2.12,2.12,0,0,1-2.12-2.16A2.1,2.1,0,0,1,48,7.89,2.08,2.08,0,0,1,50.13,10Zm-3.86,0A1.72,1.72,0,0,0,48,11.86,1.75,1.75,0,0,0,49.72,10a1.73,1.73,0,1,0-3.45.09Z"/><path class="cls-3" d="M65.62,10.1A2.12,2.12,0,1,1,69.86,10a2.12,2.12,0,1,1-4.24.08Zm.4,0a1.7,1.7,0,0,0,1.7,1.8,1.74,1.74,0,0,0,1.75-1.76,1.73,1.73,0,0,0-1.75-1.84A1.7,1.7,0,0,0,66,10.06Z"/><path class="cls-3" d="M92.14,12.13a16.39,16.39,0,0,0,0-2.43c-.07-.47-.39-1.15-.76-1.28a2.07,2.07,0,0,0-1.66.25,2.27,2.27,0,0,0-.56,1.45,14.8,14.8,0,0,0,0,2h-.28V8l.1,0,.19.47a9,9,0,0,1,1.73-.52,1.42,1.42,0,0,1,1.61,1.25c.09,1,0,2,0,3Z"/><path class="cls-3" d="M58.47,12.13V8l.14,0,.25.6c.17-.11.34-.24.52-.35a1.77,1.77,0,0,1,2.83,1.48c0,.74,0,1.49,0,2.24,0,.07-.07.14-.19.36a2.71,2.71,0,0,1-.19-.59c0-.66,0-1.33,0-2,0-.93-.46-1.39-1.27-1.43a1.46,1.46,0,0,0-1.68,1.26,12.26,12.26,0,0,0-.06,1.72c0,.3,0,.6,0,.91Z"/><path class="cls-3" d="M96.37,7.83,96.56,7h.16l.22.85L98.16,8V8.2l-1.31.13c0,.94-.07,1.92,0,2.87s.9.61,1.51.58v.28c-.4,0-.86.21-1.18.06a1.37,1.37,0,0,1-.71-.92,26,26,0,0,1,0-2.8l-1-.31Z"/><ellipse class="cls-3" cx="64.12" cy="9.17" rx="0.13" ry="4.21"/></g></svg>