<svg xmlns="http://www.w3.org/2000/svg" xmlns:xlink="http://www.w3.org/1999/xlink" viewBox="0 0 121.19 36.86"><defs><style>.cls-1{fill:url(#Degradado_sin_nombre_26);}.cls-2{fill:#003778;}.cls-3{fill:#fff;}</style><linearGradient id="Degradado_sin_nombre_26" y1="18.43" x2="121.19" y2="18.43" gradientUnits="userSpaceOnUse"><stop offset="0" stop-color="#192743"/><stop offset="0.22" stop-color="#162949" stop-opacity="0.89"/><stop offset="0.54" stop-color="#0f2e59" stop-opacity="0.59"/><stop offset="0.93" stop-color="#023573" stop-opacity="0.1"/><stop offset="1" stop-color="#003778" stop-opacity="0"/></linearGradient></defs><title>LANDING PAGE_AFIN CLIC_</title><g id="diseño"><path class="cls-1" d="M60.58,36.86H5.2C1.9,36.86,0,35,0,31.73,0,22.91.11,14.08,0,5.25A5,5,0,0,1,5.21,0Q60.16.1,115.11,0c4,0,6.16,2,6.07,6-.17,8.6-.05,17.2-.05,25.79a4.63,4.63,0,0,1-5,5Z"/><path class="cls-2" d="M60.6,36.81q-27.76,0-55.55,0A4.49,4.49,0,0,1,.87,34.69a5.16,5.16,0,0,1-.75-2.42c0-9.23,0-18.46,0-27.69A4.57,4.57,0,0,1,4.68,0h1q55,0,110.07,0a7.42,7.42,0,0,1,2.92.57,4.11,4.11,0,0,1,2.47,4q0,13.8,0,27.6a4.57,4.57,0,0,1-4.5,4.65c-.46,0-.93,0-1.39,0Zm0-36H5.14A3.88,3.88,0,0,0,.88,5.07q0,13.27,0,26.56C.88,34.48,2.43,36,5.29,36H115.87q4.51,0,4.52-4.52,0-9.81,0-19.64c0-2.36,0-4.73,0-7.1A3.84,3.84,0,0,0,116.5.82H60.6Z"/><path class="cls-3" d="M6.92,6.74l12.63,12.2L6.92,31.16Z"/><path class="cls-3" d="M8.21,6.42l15.52,8.2-3.51,3.75L8.07,6.63Z"/><path class="cls-3" d="M8.32,31,20.21,19.52l3,3.44L8.43,31.2Z"/><path class="cls-3" d="M21.13,19c1-1.08,2.07-2.25,3.18-3.38a.8.8,0,0,1,.74,0q2,1.13,4,2.33a.87.87,0,0,1,0,1.63c-1.44.86-2.88,1.7-4.35,2.5a.87.87,0,0,1-.79-.06C22.94,20.94,22,19.89,21.13,19Z"/><path class="cls-3" d="M66.9,20.58c.18-1.29,1-.59,1.6-.72,0,2.52.08,5,0,7.45a2.62,2.62,0,0,1-2.19,2.38,6.37,6.37,0,0,1-5.18-.79l.62-1a21.08,21.08,0,0,0,3.35.5c1.33,0,1.93-.9,1.78-2.36a3.72,3.72,0,0,1-3.6.59,4.65,4.65,0,0,1-1.85-1.33,3.5,3.5,0,0,1,.31-4.45A4,4,0,0,1,66.9,20.58Zm-2.17,4.78a2.09,2.09,0,1,0-2.25-2.09A2.09,2.09,0,0,0,64.73,25.36Z"/><path class="cls-3" d="M40.36,20a3.79,3.79,0,0,0-3.49-.88,3.36,3.36,0,0,0,.25,6.58,3.07,3.07,0,0,0,.68.05c1.7,0,2-.26,2-1.94V22.31h1.67c0,1.17,0,2.37,0,3.56a.68.68,0,0,1-.27.41c-2.5,2.12-7.17.95-8.3-2.08a5,5,0,0,1,5-6.79A4.7,4.7,0,0,1,41.51,19Z"/><path class="cls-3" d="M87.42,17.66c1.74,0,3.39-.12,5,0a3.08,3.08,0,0,1,2.94,3.24,3.15,3.15,0,0,1-3,3.33c-1,.14-2.12.13-3.26.18V27.1H87.42ZM89.17,23c1.1-.08,2.14-.09,3.14-.26A1.6,1.6,0,0,0,93.6,21a1.57,1.57,0,0,0-1.26-1.73c-1-.17-2.09-.15-3.17-.22Z"/><path class="cls-3" d="M80.37,25.07l.8.89c-.82,1.52-3.66,1.55-5,.79a3.77,3.77,0,0,1,3-6.87A3.51,3.51,0,0,1,81.64,24H76.08C76.39,25.84,78.29,26.29,80.37,25.07Zm-.32-2.22a1.89,1.89,0,0,0-2-1.72,1.86,1.86,0,0,0-2,1.72Z"/><path class="cls-3" d="M101.48,21.81l-.59-1a4.89,4.89,0,0,1,4.69-.75c1.38.55,1.69,1.7,1.7,3v4.12c-.7-.13-1.49.45-1.74-.67a3.45,3.45,0,0,1-3,.69,2.2,2.2,0,0,1-2-2.17,2.13,2.13,0,0,1,2-2.05,12,12,0,0,1,1.47-.07c.45,0,.91,0,1.65,0-.27-.53-.35-1.08-.67-1.3C103.85,20.76,102.67,21.26,101.48,21.81Zm4,2.15a21,21,0,0,0-2.43.19,1,1,0,0,0-.66.67,1,1,0,0,0,.33.88,1.92,1.92,0,0,0,2.12,0A1.35,1.35,0,0,0,105.45,24Z"/><path class="cls-3" d="M108.22,19.94c1.62-.28,1.62-.28,2.18,1s1.15,2.7,1.81,4.23c.27-.58.48-1,.67-1.47.4-.9.78-1.8,1.17-2.7.54-1.26.53-1.26,2-1.14a1.54,1.54,0,0,1,0,.39c-1.12,2.59-2.22,5.19-3.38,7.77A2.87,2.87,0,0,1,108,29.22l.58-1.1a7,7,0,0,0,1.25.33,1.24,1.24,0,0,0,1.26-1.78c-.84-2-1.69-3.91-2.54-5.87C108.45,20.54,108.35,20.28,108.22,19.94Z"/><path class="cls-3" d="M55.79,27.24a3.75,3.75,0,1,1,3.91-3.71A3.68,3.68,0,0,1,55.79,27.24ZM58,23.46a2.16,2.16,0,0,0-2.2-2.27,2.18,2.18,0,0,0-2.15,2.33A2.18,2.18,0,1,0,58,23.46Z"/><path class="cls-3" d="M47,27.24a3.75,3.75,0,1,1,3.88-3.75A3.68,3.68,0,0,1,47,27.24Zm-2.2-3.77a2.16,2.16,0,0,0,2.14,2.33,2.19,2.19,0,0,0,2.2-2.28,2.17,2.17,0,1,0-4.34-.05Z"/><path class="cls-3" d="M71,17h1.61V27.11H71Z"/><path class="cls-3" d="M98.82,27.12H97.24V17h1.58Z"/><path class="cls-3" d="M38.59,12.2a5.92,5.92,0,0,1-.53-1,.85.85,0,0,0-1-.67,3.18,3.18,0,0,1-.69,0c-1.18-.1-2.31-.11-2.61,1.43,0,.08-.2.14-.45.11.18-.4.34-.81.53-1.21C34.4,9.56,35,8.25,35.61,7a2.43,2.43,0,0,1,.49-.53,2.67,2.67,0,0,1,.41.49c.8,1.71,1.58,3.42,2.36,5.13ZM36.06,6.87,34.6,10.14h3Z"/><path class="cls-3" d="M58.17,11.44l-.14.68h-.19v-6h.21V8.44a5.84,5.84,0,0,1,1.89-.56,2.85,2.85,0,0,1,1.66.88,2.23,2.23,0,0,1-.26,2.85C60.52,12.39,59.43,12.35,58.17,11.44ZM61.58,10a1.73,1.73,0,1,0-3.45,0,1.73,1.73,0,1,0,3.45,0Z"/><path class="cls-3" d="M88.56,12.13v-6h.23V8.53c.38-.23.57-.36.78-.46a1.76,1.76,0,0,1,2.72,1.59c0,.83,0,1.66,0,2.48h-.42V10c0-1.25-.4-1.76-1.37-1.78s-1.6.6-1.62,1.79c0,.72,0,1.44,0,2.15Z"/><path class="cls-3" d="M69,10.09H65.46c0,1.64,1.38,2.14,3.12,1.24-.13.62-.88,1-1.81.82A2.14,2.14,0,0,1,65,9.62a2,2,0,0,1,2.26-1.78A2,2,0,0,1,69,10.09Zm-3.51-.38h3.13c-.16-1-.67-1.48-1.51-1.51S65.64,8.66,65.44,9.71Z"/><path class="cls-3" d="M94,10.09c.3,1.71,1.45,2.11,3.19,1.24-.13.63-.87,1-1.81.82a2.12,2.12,0,0,1-1.77-2.53,2,2,0,0,1,2.18-1.79,2,2,0,0,1,1.77,2.26Zm0-.37h3.13c-.14-1-.69-1.52-1.56-1.52S94.21,8.67,94,9.72Z"/><path class="cls-3" d="M55.81,12.14l-.16-.25a13.26,13.26,0,0,1-2.16.19,1,1,0,0,1-.9-1.15,1.69,1.69,0,0,1,.93-1,8.31,8.31,0,0,1,2-.2C55.64,8.19,55,8,52.81,8.57a1.81,1.81,0,0,1,1.85-.73c.74.11,1.28.49,1.32,1.25.06,1,0,2,0,3Zm-.26-2a10.38,10.38,0,0,0-1.86,0c-.28.05-.69.47-.68.71a1.18,1.18,0,0,0,.61.87C54.73,12.19,55.68,11.4,55.55,10.13Z"/><path class="cls-3" d="M76.26,10.05A2.14,2.14,0,1,1,72,10a2.08,2.08,0,0,1,2.13-2.13A2.13,2.13,0,0,1,76.26,10.05Zm-.42,0a1.72,1.72,0,1,0-3.44-.09,1.72,1.72,0,1,0,3.44.09Z"/><path class="cls-3" d="M46.47,9.77c0-1.59-.5-1.8-2.71-1.22a1.75,1.75,0,0,1,1.87-.7c.68.13,1.22.47,1.25,1.22,0,1,0,2,0,3.23l-.39-.48a9.63,9.63,0,0,1-1.8.32A1.14,1.14,0,0,1,43.47,11c0-.77.52-1.12,1.22-1.19S45.84,9.77,46.47,9.77Zm0,.37a10.36,10.36,0,0,0-1.85,0,1,1,0,0,0-.65.72,1.09,1.09,0,0,0,.55.83A1.37,1.37,0,0,0,46.43,10.14Z"/><path class="cls-3" d="M77.61,12.11V7.93l.13,0,.28.58c.2-.13.39-.29.6-.41a1.77,1.77,0,0,1,2.74,1.56c0,.82,0,1.65,0,2.47l-.22,0a1.83,1.83,0,0,1-.15-.47c0-.69,0-1.38,0-2.07a1.28,1.28,0,0,0-1.32-1.4A1.44,1.44,0,0,0,78,9.43a15.39,15.39,0,0,0-.08,1.8c0,.3,0,.59-.07.89Z"/><path class="cls-3" d="M39.16,7.82c.57,1.22,1.13,2.44,1.77,3.82.63-1.35,1.2-2.59,1.78-3.82L43,8,41.92,10.4a15.34,15.34,0,0,1-.69,1.48c-.06.11-.53.15-.55.1-.63-1.32-1.23-2.67-1.84-4Z"/><path class="cls-3" d="M85.28,8.3l-.72-.16,0-.16.67-.2L85.4,7h.16l.19.82L87,7.92l0,.21-1.29.14c0,1-.06,1.92,0,2.86s.88.63,1.47.61l0,.26c-.4,0-.88.24-1.17.08a1.58,1.58,0,0,1-.72-1A24.76,24.76,0,0,1,85.28,8.3Z"/><path class="cls-3" d="M49,7.91v4.22h-.21V7.91Z"/><path class="cls-3" d="M63.37,12.1v-6h.2v6Z"/><path class="cls-3" d="M50.88,12.1v-6h.21v6Z"/></g></svg>