<svg xmlns="http://www.w3.org/2000/svg" viewBox="0 0 140.18 44.48"><defs><style>.cls-1{fill:#fff;}.cls-2{fill:#3bd200;}</style></defs><title>LANDING PAGE_AFIN CLIC_</title><g id="diseño"><path class="cls-1" d="M12.52.76h7.55L32.61,32.08H24.88l-1.95-5.33H9.7L7.78,32.08H.05Zm3.71,7.93L11.66,21.25H21L16.4,8.69Z"/><path class="cls-2" d="M101.84,13.91a12,12,0,0,0-5.53-1.3A9.8,9.8,0,0,0,89.51,15a8,8,0,0,0-2.71,6.19,7.86,7.86,0,0,0,2.75,6.15,10.1,10.1,0,0,0,6.84,2.47,11.27,11.27,0,0,0,6.68-2l.33,2.87a13.52,13.52,0,0,1-7.09,1.86,13,13,0,0,1-8.94-3.21,10.56,10.56,0,0,1-3.57-8.22A10.52,10.52,0,0,1,87.35,13,12.81,12.81,0,0,1,96.26,9.8a13,13,0,0,1,6.36,1.47l-.78,2.64"/><path class="cls-2" d="M106.17,32.08V.8h2.94V32.08Z"/><path class="cls-2" d="M115.44.76a2.1,2.1,0,0,1,1.59.65,2.23,2.23,0,0,1,0,3.11,2.36,2.36,0,0,1-3.17,0,2.27,2.27,0,0,1,0-3.11A2.09,2.09,0,0,1,115.44.76ZM114,32.08V10.32h2.93V32.08Z"/><path class="cls-2" d="M139.84,27.88l.34,2.87a13.55,13.55,0,0,1-7.1,1.86,12.91,12.91,0,0,1-8.93-3.21,10.53,10.53,0,0,1-3.57-8.22A10.48,10.48,0,0,1,124.13,13,12.78,12.78,0,0,1,133,9.8a13.07,13.07,0,0,1,6.36,1.47l-.79,2.64a12,12,0,0,0-5.53-1.3,9.83,9.83,0,0,0-6.8,2.42,8,8,0,0,0-2.7,6.19,7.88,7.88,0,0,0,2.74,6.15,10.11,10.11,0,0,0,6.85,2.47A11.26,11.26,0,0,0,139.84,27.88Z"/><path class="cls-1" d="M46.58,5.9a12.59,12.59,0,0,0-2.24-.27q-3.92,0-3.94,3.92v.79H55.14V32.05H49V15.69H40.4V32.05H34.18V15.69H30.73l-2.15-5.35h5.6V8.44a7.79,7.79,0,0,1,2.63-6.1A9.89,9.89,0,0,1,43.65,0a21,21,0,0,1,3.7.47Z"/><path class="cls-1" d="M64.41,32.05H58.18V10.3h4.21L63.89,14a8,8,0,0,1,3.21-3.1,8.82,8.82,0,0,1,4.71-1.22,8.66,8.66,0,0,1,6.88,3.1,11.52,11.52,0,0,1,2.68,7.88V32.05H75.14V20.94A5.45,5.45,0,0,0,65.91,17a5.32,5.32,0,0,0-1.5,3.89Z"/><path class="cls-2" d="M56.62,3.33a.62.62,0,0,0-.29-.72,1.4,1.4,0,0,0-1.6,0l-1.1.84c-.05,0-.12,0-.08-.08l.85-1.1a1.42,1.42,0,0,0,0-1.59A.64.64,0,0,0,53.7.4a4,4,0,0,1-2.38,0l-.18,0A.68.68,0,0,0,50.6.7a1.38,1.38,0,0,0,0,1.59l.84,1.1a.06.06,0,1,1-.08.08l-1.1-.84a1.31,1.31,0,0,0-.79-.26,1.4,1.4,0,0,0-.8.24.64.64,0,0,0-.31.68,5.12,5.12,0,0,1,0,2.46.65.65,0,0,0,.31.68,1.4,1.4,0,0,0,1.59,0l1.1-.84c.06,0,.13,0,.08.08l-.84,1.1a1.4,1.4,0,0,0,0,1.6.62.62,0,0,0,.72.29,4,4,0,0,1,2.38,0,.63.63,0,0,0,.72-.29,1.43,1.43,0,0,0,0-1.6l-.85-1.1a.06.06,0,0,1,.08-.08l1.1.84a1.42,1.42,0,0,0,1.6,0,.63.63,0,0,0,.29-.72A4,4,0,0,1,56.62,3.33ZM54.19,4.69h-.64a.87.87,0,0,0-.87.87V6.2a.18.18,0,0,1-.17.17h0a.18.18,0,0,1-.18-.17V5.56a.87.87,0,0,0-.87-.87h-.63a.18.18,0,0,1-.18-.17.18.18,0,0,1,.18-.18h.63a.87.87,0,0,0,.87-.87V2.84a.18.18,0,0,1,.18-.18h0a.18.18,0,0,1,.17.18v.63a.87.87,0,0,0,.87.87h.64a.18.18,0,0,1,.17.18A.18.18,0,0,1,54.19,4.69Z"/><path class="cls-1" d="M0,44.39V39.45H3.68v.65H.7v1.76H3.41v.59H.7v1.94Z"/><path class="cls-1" d="M17.27,44.39V39.45H18v4.94Z"/><path class="cls-1" d="M36.12,44.39H35.5l-2.88-3.7h0v3.7h-.71V39.45h.63l2.87,3.71h0V39.45h.7Z"/><path class="cls-1" d="M51.66,39.45h.77l2.1,4.94h-.8l-.41-1H50.77l-.41,1h-.8ZM51,42.79h2.09l-1-2.52h0Z"/><path class="cls-1" d="M72.2,44.39h-.62l-2.88-3.7h0v3.7H68V39.45h.62l2.87,3.71h0V39.45h.7Z"/><path class="cls-1" d="M89.51,43.7a2.2,2.2,0,0,0,.7-.36l.12.64a2.84,2.84,0,0,1-1.67.5,2.81,2.81,0,0,1-2-.69A2.4,2.4,0,0,1,86,42a2.49,2.49,0,0,1,.75-1.86,2.67,2.67,0,0,1,2-.74,3.06,3.06,0,0,1,1.48.36l-.17.66A2.39,2.39,0,0,0,88.65,40a1.92,1.92,0,0,0-2,2,1.76,1.76,0,0,0,.57,1.36,2.07,2.07,0,0,0,1.45.51A2.63,2.63,0,0,0,89.51,43.7Z"/><path class="cls-1" d="M103.89,44.39V39.45h.69v4.94Z"/><path class="cls-1" d="M120.12,39.45h.78L123,44.39h-.79l-.41-1h-2.56l-.4,1H118Zm-.65,3.34h2.08l-1-2.52h0Z"/><path class="cls-1" d="M137.14,39.45v4.3h2.93v.64h-3.63V39.45Z"/></g></svg>