<svg xmlns="http://www.w3.org/2000/svg" viewBox="0 0 11.55 16.43"><defs><style>.cls-1{fill:#006;}</style></defs><title>LANDING PAGE_AFIN CLIC_</title><g id="diseño"><path class="cls-1" d="M5.78,0A5.78,5.78,0,0,0,.86,8.81L5.45,16.2a.49.49,0,0,0,.41.23h0a.49.49,0,0,0,.41-.23l4.47-7.46A5.79,5.79,0,0,0,5.78,0ZM9.91,8.24,5.85,15,1.68,8.31a4.82,4.82,0,1,1,8.91-2.53A4.72,4.72,0,0,1,9.91,8.24Z"/><path class="cls-1" d="M5.78,2.89A2.89,2.89,0,1,0,8.66,5.78,2.89,2.89,0,0,0,5.78,2.89Zm0,4.82A1.94,1.94,0,1,1,7.71,5.78,1.94,1.94,0,0,1,5.78,7.71Z"/></g></svg>