<svg xmlns="http://www.w3.org/2000/svg" viewBox="0 0 51 33.21"><defs><style>.cls-1{fill:#006;}</style></defs><title>LANDING PAGE_AFIN CLIC_</title><g id="diseño"><rect class="cls-1" width="15.42" height="33.21"/><rect class="cls-1" x="35.58" width="15.42" height="33.21"/><path class="cls-1" d="M31.49,16.4a.68.68,0,0,0-.21-.17,1.05,1.05,0,0,1-.29-.34,4.73,4.73,0,0,1-.36-.71c-.1-.23-.19-.47-.31-.7a4,4,0,0,0-.43-.64,2.17,2.17,0,0,0-1-.78.53.53,0,0,0,.13-.23s0,0,0,0a.9.9,0,0,1-.42-.16c-.12-.08-.25-.15-.38-.22a4.65,4.65,0,0,0-.76-.31,6.07,6.07,0,0,0-.85-.16,5.21,5.21,0,0,0-.88-.06c-.23,0-.51-.05-.7.11a.38.38,0,0,0-.05.47c.11.17.36.22.53.33a1.53,1.53,0,0,1,.53.57,2.11,2.11,0,0,1,.19.55,1.69,1.69,0,0,1-.05.67,1,1,0,0,1-.23.51.58.58,0,0,1-.29.18v0c0-.18-.05-.36-.08-.54l0-.14a.33.33,0,0,0,.23-.12,0,0,0,0,0,0,0,.79.79,0,0,1-.23-.33,2.5,2.5,0,0,0-.21-.35.85.85,0,0,0-.25-.21L25,13.48a.27.27,0,0,0,0-.26s0,0,0,0c-.22.2-.5,0-.69-.16A.56.56,0,0,0,24,13a.25.25,0,0,0-.13,0,1.39,1.39,0,0,0-.1-.33c0-.08-.08-.12-.11,0a.79.79,0,0,1-.11.29.18.18,0,0,1-.05.07.61.61,0,0,0-.05-.12c0-.05-.13-.32-.2-.29s0,.05-.05.09,0,.18,0,.28a.86.86,0,0,1-.1.31s0-.09,0-.14-.05-.29-.15-.29,0,.22,0,.25a.69.69,0,0,1-.17.42,2,2,0,0,0,0-.25c0-.06,0-.16-.07-.2s0,0,0,0a.9.9,0,0,1-.3.68A1.61,1.61,0,0,0,22,14a.43.43,0,0,0-.07.25l0,0a.2.2,0,0,0-.11.2l-.13,0a.32.32,0,0,0-.09.08.28.28,0,0,0-.13,0l-.21.05a.17.17,0,0,1-.14-.09,2.17,2.17,0,0,0,.24-.07.54.54,0,0,0,.16-.1.4.4,0,0,0,.19-.34l0,0c-.11,0-.16.13-.25.17a.53.53,0,0,1-.33,0s0,0,0-.06.11-.17.17-.24a.32.32,0,0,0,.07-.19l0-.08a.45.45,0,0,1,.11.35s0,0,0,0,.07-.11.07-.16a.68.68,0,0,0-.06-.32h0a.09.09,0,0,0,0-.15.17.17,0,0,0-.25,0c-.07.08-.15,0-.23,0s-.11,0-.14.08a2.83,2.83,0,0,1-.37.32.3.3,0,0,0-.13.31.4.4,0,0,0,.16.27,2.73,2.73,0,0,0,0,.41.47.47,0,0,0,.19.34,1,1,0,0,0,.78.12.58.58,0,0,0,.35.26c.07,0,.22.07.29,0l0,0c.12.16-.08.31-.21.37a2.89,2.89,0,0,0-.67.36,1.79,1.79,0,0,0-.38.52,1.58,1.58,0,0,0-.16.68,1.51,1.51,0,0,0,.08.67.81.81,0,0,0,.4.45,1.6,1.6,0,0,0,.69.07,1.18,1.18,0,0,1,.72.09h0c0,.11-.11,0-.14,0a.57.57,0,0,0-.18,0,.34.34,0,0,0-.31.1.55.55,0,0,1-.17.2.52.52,0,0,0-.18.1.3.3,0,0,0-.09.25h0a.2.2,0,0,1-.22-.1,1.19,1.19,0,0,1-.14-.4,1.12,1.12,0,0,0-.19-.29l-.3-.33a.94.94,0,0,1-.2-.29.6.6,0,0,1,.09-.43.84.84,0,0,0,.05-.64.74.74,0,0,0-.4-.45,0,0,0,0,0,0,0c0-.14-.14-.17-.28-.17h-.06a.5.5,0,0,0-.12-.08.55.55,0,0,0-.18,0h0c-.14-.1-.46-.17-.55,0a.28.28,0,0,0,.09.28.48.48,0,0,0,.29.09.2.2,0,0,0,0,.08.35.35,0,0,0,.25.12l.05.1A.38.38,0,0,0,20,17a.62.62,0,0,1,.09.37c0,.24-.22.42-.24.66a.88.88,0,0,0,.35.77,2.65,2.65,0,0,1,.39.26c.13.15.09.38.09.56a.57.57,0,0,0,.41.53l.25,0a.59.59,0,0,0,.23,0,1,1,0,0,0,.28-.14l.1.07a.1.1,0,0,0,.15,0s.09.06.13,0,.06-.08.08-.13.11.05.12.05a0,0,0,0,0,0,0,.58.58,0,0,0,0-.26c.11.16.18.38.41.36a.68.68,0,0,0,.31-.11l0,.06a1,1,0,0,0,.25.16.57.57,0,0,0,.29,0,.39.39,0,0,0,0,.14c0,.1.31.05.37.05a.75.75,0,0,0,.43-.15l.13-.1a1,1,0,0,1,.11.17c0,.06.05.23.14.16s.05-.08.05-.12a2.9,2.9,0,0,0,.07-.71l.11.12a2.08,2.08,0,0,1,.32.4,1.27,1.27,0,0,1,.21.44c0,.07,0,.19.11.22h0c0-.06.05-.12.07-.17l0,.06A2,2,0,0,1,26,21s0,0,0,.06a.75.75,0,0,1-.07.12.22.22,0,0,1-.17.1s-.08,0-.12,0a.3.3,0,0,0-.25.2.3.3,0,0,0-.26.09.33.33,0,0,0,0,.37,0,0,0,0,0,0,0c0-.06.06-.13.14-.16a.65.65,0,0,1,.19,0l.07.06s.12.1.16.06a.66.66,0,0,0,0,.14.23.23,0,0,0-.12.15c0,.11,0,.36.12.39s0,0,0,0a.37.37,0,0,1,.19-.28h0a.33.33,0,0,0,.32,0,1.22,1.22,0,0,0,.2-.25.37.37,0,0,1,.17-.16.49.49,0,0,1,.21,0,.56.56,0,0,1,.36.05,1.31,1.31,0,0,1,.21.2c.09.09.28.18.4.07h0l0,0a.26.26,0,0,1,0,.28s0,0,0,0a.31.31,0,0,0,.2-.42.44.44,0,0,0-.2-.26.56.56,0,0,0,0-.12.23.23,0,0,0-.15-.15h-.18a.25.25,0,0,1-.21-.1c-.14-.16-.28-.33-.41-.5V20.8a.42.42,0,0,0,.16.11s0,0,0,0-.08-.26-.08-.4a1.1,1.1,0,0,1,0-.18,2.57,2.57,0,0,1,.39.6c.07.16.16.33.34.36a.25.25,0,0,0,.26-.13.76.76,0,0,0,.25.18.31.31,0,0,0,.37-.14.63.63,0,0,0,.3.1.69.69,0,0,0,.41-.15.35.35,0,0,0,.1-.12.72.72,0,0,0,.46,0,.31.31,0,0,0,.24-.36.25.25,0,0,0-.12-.16,3.53,3.53,0,0,0-.32-.21,15,15,0,0,1-1.38-1l-.64-.54-.31-.24a1.36,1.36,0,0,1-.12-.12c0-.07,0-.14,0-.2a2.69,2.69,0,0,0-.34-.65.39.39,0,0,0,.14-.23l.11.08a6.68,6.68,0,0,1,.82.47,2.71,2.71,0,0,1,.36.46c0,.07.17.28.27.21s0,0,0,0a5.27,5.27,0,0,0-.51-.86c-.1-.15-.19-.3-.28-.45l-.05-.08.06,0c.09.05.18.09.27.15a1.35,1.35,0,0,1,.49.46,3.37,3.37,0,0,1,.28.61c0,.09.07.19.1.29a.81.81,0,0,0,.1.21c.07.07.1-.07.09-.12a1.8,1.8,0,0,0-.06-.22c0-.12,0-.24-.08-.36a3.58,3.58,0,0,0-.33-.78,1.55,1.55,0,0,1,.27.24,1.81,1.81,0,0,1,.29.63c0,.12.08.24.11.36s0,.25.07.38,0,.15.09.19.05,0,.05,0a.66.66,0,0,0,0-.28l0-.37c0-.24-.07-.48-.1-.71l-.06-.28a3.46,3.46,0,0,1,.22.69c.06.28.09.55.14.83s.08.6.12.91c0,0,.06.29.16.22s.08-.35.07-.5a8.61,8.61,0,0,1,0-.88c0-.3,0-.61,0-.92v0a3.37,3.37,0,0,1,.19.82c.05.32.09.64.11,1s0,.38.05.57,0,.24.09.26.13-.28.13-.33a6,6,0,0,0,0-.85c0-.3,0-.61,0-.92a4.36,4.36,0,0,1,0-.51,3.69,3.69,0,0,1,.08.46,10.47,10.47,0,0,1,0,1.12c0,.26,0,.52,0,.78s0,.4.08.5h0c.09,0,.12-.17.15-.26l.12-.48c0-.2.07-.4.12-.61s.1-.39.13-.59a4.39,4.39,0,0,0,0-1.2,3.87,3.87,0,0,0-.29-1h.15C31.35,16.58,31.55,16.52,31.49,16.4Zm-7.73,2.72c.06.07.21.21,0,.25a1.66,1.66,0,0,0-.21.06c-.06,0,0-.12,0-.18a.18.18,0,0,0,0-.2.92.92,0,0,0-.22-.22l0,0a1.45,1.45,0,0,0,0-.3A.57.57,0,0,0,23,18a.85.85,0,0,0-.32,0h-.48a.79.79,0,0,1-.66-.28.51.51,0,0,1-.05-.38,1,1,0,0,1,.19-.41,2.8,2.8,0,0,1,.59-.49,2.07,2.07,0,0,0,.51-.47.87.87,0,0,0,.14-.61.89.89,0,0,0-.12-.39h0a1.44,1.44,0,0,0,.4-.09.53.53,0,0,0,.21-.23.35.35,0,0,1,.1.08.43.43,0,0,1,.09.1,1.09,1.09,0,0,1-.19.18.21.21,0,0,0,0,.28.28.28,0,0,0,.1.09l-.05.06a1.14,1.14,0,0,0-.26.28.27.27,0,0,0,.06.32l0,0a.86.86,0,0,0-.29.28.91.91,0,0,0,0,.79c.06.15.16.27.23.41a.29.29,0,0,1,.05.2.25.25,0,0,0,0,.12c0,.05.1,0,.13,0a.36.36,0,0,0,.11-.16.38.38,0,0,0,.09.09,1,1,0,0,0,0,.54,1.56,1.56,0,0,0,.22.4.91.91,0,0,1,.09.17l-.13,0c-.05,0-.14,0-.18,0S23.73,19.1,23.76,19.12Z"/></g></svg>