<svg xmlns="http://www.w3.org/2000/svg" viewBox="0 0 51 33"><defs><style>.cls-1{fill:#006;}</style></defs><title>LANDING PAGE_AFIN CLIC_</title><g id="diseño"><rect class="cls-1" x="22" width="29" height="4"/><rect class="cls-1" x="22" y="7.25" width="29" height="4"/><rect class="cls-1" x="22" y="14.5" width="29" height="4"/><rect class="cls-1" y="21.75" width="51" height="4"/><rect class="cls-1" y="29" width="51" height="4"/><polygon class="cls-1" points="0.88 1 1.15 1.55 1.75 1.64 1.31 2.06 1.42 2.67 0.88 2.38 0.33 2.67 0.44 2.06 0 1.64 0.6 1.55 0.88 1"/><polygon class="cls-1" points="4.88 1 5.15 1.55 5.75 1.64 5.31 2.06 5.42 2.67 4.88 2.38 4.33 2.67 4.44 2.06 4 1.64 4.61 1.55 4.88 1"/><polygon class="cls-1" points="8.88 1 9.15 1.55 9.75 1.64 9.31 2.06 9.42 2.67 8.88 2.38 8.33 2.67 8.44 2.06 8 1.64 8.61 1.55 8.88 1"/><polygon class="cls-1" points="12.88 1 13.15 1.55 13.75 1.64 13.31 2.06 13.42 2.67 12.88 2.38 12.33 2.67 12.44 2.06 12 1.64 12.61 1.55 12.88 1"/><polygon class="cls-1" points="16.88 1 17.15 1.55 17.75 1.64 17.31 2.06 17.42 2.67 16.88 2.38 16.33 2.67 16.44 2.06 16 1.64 16.61 1.55 16.88 1"/><polygon class="cls-1" points="2.88 4 3.15 4.55 3.75 4.64 3.31 5.06 3.42 5.67 2.88 5.38 2.33 5.67 2.44 5.06 2 4.64 2.6 4.55 2.88 4"/><polygon class="cls-1" points="6.88 4 7.15 4.55 7.75 4.64 7.31 5.06 7.42 5.67 6.88 5.38 6.33 5.67 6.44 5.06 6 4.64 6.61 4.55 6.88 4"/><polygon class="cls-1" points="10.88 4 11.15 4.55 11.75 4.64 11.31 5.06 11.42 5.67 10.88 5.38 10.33 5.67 10.44 5.06 10 4.64 10.61 4.55 10.88 4"/><polygon class="cls-1" points="14.88 4 15.15 4.55 15.75 4.64 15.31 5.06 15.42 5.67 14.88 5.38 14.33 5.67 14.44 5.06 14 4.64 14.61 4.55 14.88 4"/><polygon class="cls-1" points="18.88 4 19.15 4.55 19.75 4.64 19.31 5.06 19.42 5.67 18.88 5.38 18.33 5.67 18.44 5.06 18 4.64 18.61 4.55 18.88 4"/><polygon class="cls-1" points="0.88 7 1.15 7.55 1.75 7.64 1.31 8.06 1.42 8.66 0.88 8.38 0.33 8.66 0.44 8.06 0 7.64 0.6 7.55 0.88 7"/><polygon class="cls-1" points="4.88 7 5.15 7.55 5.75 7.64 5.31 8.06 5.42 8.66 4.88 8.38 4.33 8.66 4.44 8.06 4 7.64 4.61 7.55 4.88 7"/><polygon class="cls-1" points="8.88 7 9.15 7.55 9.75 7.64 9.31 8.06 9.42 8.66 8.88 8.38 8.33 8.66 8.44 8.06 8 7.64 8.61 7.55 8.88 7"/><polygon class="cls-1" points="12.88 7 13.15 7.55 13.75 7.64 13.31 8.06 13.42 8.66 12.88 8.38 12.33 8.66 12.44 8.06 12 7.64 12.61 7.55 12.88 7"/><polygon class="cls-1" points="16.88 7 17.15 7.55 17.75 7.64 17.31 8.06 17.42 8.66 16.88 8.38 16.33 8.66 16.44 8.06 16 7.64 16.61 7.55 16.88 7"/><polygon class="cls-1" points="2.88 10 3.15 10.55 3.75 10.64 3.31 11.06 3.42 11.66 2.88 11.38 2.33 11.66 2.44 11.06 2 10.64 2.6 10.55 2.88 10"/><polygon class="cls-1" points="6.88 10 7.15 10.55 7.75 10.64 7.31 11.06 7.42 11.66 6.88 11.38 6.33 11.66 6.44 11.06 6 10.64 6.61 10.55 6.88 10"/><polygon class="cls-1" points="10.88 10 11.15 10.55 11.75 10.64 11.31 11.06 11.42 11.66 10.88 11.38 10.33 11.66 10.44 11.06 10 10.64 10.61 10.55 10.88 10"/><polygon class="cls-1" points="14.88 10 15.15 10.55 15.75 10.64 15.31 11.06 15.42 11.66 14.88 11.38 14.33 11.66 14.44 11.06 14 10.64 14.61 10.55 14.88 10"/><polygon class="cls-1" points="18.88 10 19.15 10.55 19.75 10.64 19.31 11.06 19.42 11.66 18.88 11.38 18.33 11.66 18.44 11.06 18 10.64 18.61 10.55 18.88 10"/><polygon class="cls-1" points="0.88 13 1.15 13.55 1.75 13.64 1.31 14.06 1.42 14.66 0.88 14.38 0.33 14.66 0.44 14.06 0 13.64 0.6 13.55 0.88 13"/><polygon class="cls-1" points="4.88 13 5.15 13.55 5.75 13.64 5.31 14.06 5.42 14.66 4.88 14.38 4.33 14.66 4.44 14.06 4 13.64 4.61 13.55 4.88 13"/><polygon class="cls-1" points="8.88 13 9.15 13.55 9.75 13.64 9.31 14.06 9.42 14.66 8.88 14.38 8.33 14.66 8.44 14.06 8 13.64 8.61 13.55 8.88 13"/><polygon class="cls-1" points="12.88 13 13.15 13.55 13.75 13.64 13.31 14.06 13.42 14.66 12.88 14.38 12.33 14.66 12.44 14.06 12 13.64 12.61 13.55 12.88 13"/><polygon class="cls-1" points="16.88 13 17.15 13.55 17.75 13.64 17.31 14.06 17.42 14.66 16.88 14.38 16.33 14.66 16.44 14.06 16 13.64 16.61 13.55 16.88 13"/><polygon class="cls-1" points="2.88 16 3.15 16.55 3.75 16.64 3.31 17.06 3.42 17.66 2.88 17.38 2.33 17.66 2.44 17.06 2 16.64 2.6 16.55 2.88 16"/><polygon class="cls-1" points="6.88 16 7.15 16.55 7.75 16.64 7.31 17.06 7.42 17.66 6.88 17.38 6.33 17.66 6.44 17.06 6 16.64 6.61 16.55 6.88 16"/><polygon class="cls-1" points="10.88 16 11.15 16.55 11.75 16.64 11.31 17.06 11.42 17.66 10.88 17.38 10.33 17.66 10.44 17.06 10 16.64 10.61 16.55 10.88 16"/><polygon class="cls-1" points="14.88 16 15.15 16.55 15.75 16.64 15.31 17.06 15.42 17.66 14.88 17.38 14.33 17.66 14.44 17.06 14 16.64 14.61 16.55 14.88 16"/><polygon class="cls-1" points="18.88 16 19.15 16.55 19.75 16.64 19.31 17.06 19.42 17.66 18.88 17.38 18.33 17.66 18.44 17.06 18 16.64 18.61 16.55 18.88 16"/></g></svg>